<svg width="43" height="51" viewBox="0 0 43 51" fill="none" xmlns="http://www.w3.org/2000/svg">
<path fill-rule="evenodd" clip-rule="evenodd" d="M9.3717 0.341709C9.82731 -0.113903 10.566 -0.113903 11.0216 0.341709L13.6016 2.92171C15.5367 1.80537 17.782 1.16667 20.1765 1.16667H21.8235C24.22 1.16667 26.467 1.80641 28.4031 2.92442L30.9858 0.341709C31.4414 -0.113903 32.1801 -0.113903 32.6357 0.341709C33.0913 0.79732 33.0913 1.53601 32.6357 1.99162L30.3394 4.28795C33.1904 6.70493 35 10.3127 35 14.3431C35 14.798 34.6313 15.1667 34.1765 15.1667H7.82353C7.36871 15.1667 7 14.798 7 14.3431C7 10.3108 8.81129 6.70155 11.6646 4.28455L9.3717 1.99162C8.91609 1.53601 8.91609 0.79732 9.3717 0.341709ZM17.5 8.75C17.5 9.7165 16.7165 10.5 15.75 10.5C14.7835 10.5 14 9.7165 14 8.75C14 7.7835 14.7835 7 15.75 7C16.7165 7 17.5 7.7835 17.5 8.75ZM26.1886 10.5C27.1551 10.5 27.9386 9.7165 27.9386 8.75C27.9386 7.7835 27.1551 7 26.1886 7C25.2221 7 24.4386 7.7835 24.4386 8.75C24.4386 9.7165 25.2221 10.5 26.1886 10.5Z" fill="#F7F8F7"/>
<path d="M2.33333 17.3772C1.04467 17.3772 0 18.4218 0 19.7105V33.7105C0 34.9992 1.04467 36.0438 2.33333 36.0438C3.622 36.0438 4.66667 34.9992 4.66667 33.7105V19.7105C4.66667 18.4218 3.622 17.3772 2.33333 17.3772Z" fill="#F7F8F7"/>
<path d="M9.33333 17.3772C8.04467 17.3772 7 18.4218 7 19.7105V40.7105C7 41.9992 8.04467 43.0438 9.33333 43.0438H32.6667C33.9553 43.0438 35 41.9992 35 40.7105V19.7105C35 18.4218 33.9553 17.3772 32.6667 17.3772H9.33333Z" fill="#F7F8F7"/>
<path d="M37.8245 19.7105C37.8245 18.4218 38.8692 17.3772 40.1579 17.3772C41.4465 17.3772 42.4912 18.4218 42.4912 19.7105V33.7105C42.4912 34.9992 41.4465 36.0438 40.1579 36.0438C38.8692 36.0438 37.8245 34.9992 37.8245 33.7105V19.7105Z" fill="#F7F8F7"/>
<path d="M11.1848 45.5C10.8066 45.5 10.5 45.8066 10.5 46.1848V46.6667C10.5 48.9218 12.3282 50.75 14.5833 50.75C16.8385 50.75 18.6667 48.9218 18.6667 46.6667V46.1848C18.6667 45.8066 18.3601 45.5 17.9819 45.5H11.1848Z" fill="#F7F8F7"/>
<path d="M23.3333 46.1848C23.3333 45.8066 23.6399 45.5 24.0181 45.5H30.8152C31.1934 45.5 31.5 45.8066 31.5 46.1848V46.6667C31.5 48.9218 29.6718 50.75 27.4167 50.75C25.1615 50.75 23.3333 48.9218 23.3333 46.6667V46.1848Z" fill="#F7F8F7"/>
</svg>
