<svg width="40" height="41" viewBox="0 0 40 41" fill="none" xmlns="http://www.w3.org/2000/svg">
<path d="M3.75 4.875V34.25H38.125C38.6223 34.25 39.0992 34.4475 39.4508 34.7992C39.8025 35.1508 40 35.6277 40 36.125C40 36.6223 39.8025 37.0992 39.4508 37.4508C39.0992 37.8025 38.6223 38 38.125 38H1.875C1.37772 38 0.900805 37.8025 0.549175 37.4508C0.197544 37.0992 0 36.6223 0 36.125L0 4.875C0 4.37772 0.197544 3.90081 0.549175 3.54917C0.900805 3.19754 1.37772 3 1.875 3C2.37228 3 2.84919 3.19754 3.20083 3.54917C3.55246 3.90081 3.75 4.37772 3.75 4.875ZM39.45 11.2L26.325 24.325C25.9734 24.6761 25.4969 24.8734 25 24.8734C24.5031 24.8734 24.0266 24.6761 23.675 24.325L17.5 18.15L10.7 24.95C10.3443 25.281 9.87422 25.4613 9.38842 25.4529C8.90263 25.4445 8.43901 25.2481 8.095 24.905C7.75189 24.561 7.5555 24.0974 7.54711 23.6116C7.53872 23.1258 7.71898 22.6557 8.05 22.3L16.175 14.175C16.5266 13.8239 17.0031 13.6266 17.5 13.6266C17.9969 13.6266 18.4734 13.8239 18.825 14.175L25 20.35L36.8 8.55C37.1557 8.21898 37.6258 8.03872 38.1116 8.04711C38.5974 8.0555 39.061 8.25189 39.405 8.595C39.7481 8.93901 39.9445 9.40263 39.9529 9.88842C39.9613 10.3742 39.781 10.8443 39.45 11.2Z" fill="#117000"/>
</svg>
