<svg width="12" height="21" viewBox="0 0 12 21" fill="none" xmlns="http://www.w3.org/2000/svg">
<path fill-rule="evenodd" clip-rule="evenodd" d="M4.48769 2.28769C5.47225 1.30312 6.80761 0.75 8.2 0.75H10.9C11.3142 0.75 11.65 1.08579 11.65 1.5V5.1C11.65 5.51421 11.3142 5.85 10.9 5.85H8.2C8.16022 5.85 8.12206 5.8658 8.09393 5.89393C8.0658 5.92206 8.05 5.96022 8.05 6V7.95H10.9C11.131 7.95 11.349 8.0564 11.4912 8.23844C11.6333 8.42048 11.6836 8.65785 11.6276 8.8819L10.7276 12.4819C10.6441 12.8158 10.3442 13.05 10 13.05H8.05V19.5C8.05 19.9142 7.71421 20.25 7.3 20.25H3.7C3.28579 20.25 2.95 19.9142 2.95 19.5V13.05H1C0.585786 13.05 0.25 12.7142 0.25 12.3V8.7C0.25 8.28579 0.585786 7.95 1 7.95H2.95V6C2.95 4.60761 3.50312 3.27226 4.48769 2.28769ZM8.2 2.25C7.20544 2.25 6.25161 2.64509 5.54835 3.34835C4.84509 4.05161 4.45 5.00544 4.45 6V8.7C4.45 9.11421 4.11421 9.45 3.7 9.45H1.75V11.55H3.7C4.11421 11.55 4.45 11.8858 4.45 12.3V18.75H6.55V12.3C6.55 11.8858 6.88579 11.55 7.3 11.55H9.41442L9.93942 9.45H7.3C6.88579 9.45 6.55 9.11421 6.55 8.7V6C6.55 5.56239 6.72384 5.14271 7.03327 4.83327C7.34271 4.52384 7.76239 4.35 8.2 4.35H10.15V2.25H8.2Z" fill="#111311"/>
</svg>
