<svg width="1172" height="1205" viewBox="0 0 1172 1205" fill="none" xmlns="http://www.w3.org/2000/svg">
<g opacity="0.3" filter="url(#filter0_d_662_6047)">
<path d="M67.9443 443.199C96.2893 415.21 120.578 403.892 140.81 409.246C161.042 414.599 185.33 403.281 213.675 375.293C242.02 347.304 266.308 335.986 286.54 341.34C306.772 346.693 331.061 335.375 359.406 307.387C387.751 279.398 412.039 268.08 432.271 273.434C452.503 278.787 476.791 267.469 505.136 239.481C533.481 211.492 557.77 200.174 578.002 205.528C598.234 210.881 622.522 199.563 650.867 171.575C679.212 143.586 703.501 132.268 723.733 137.622C743.964 142.975 768.253 131.657 796.598 103.669" stroke="#60C26F"/>
<path d="M117.176 548.853C145.521 520.864 169.809 509.547 190.041 514.9C210.273 520.254 234.561 508.936 262.906 480.947C291.251 452.958 315.54 441.641 335.772 446.994C356.004 452.348 380.292 441.03 408.637 413.041C436.982 385.052 461.271 373.735 481.503 379.088C501.734 384.442 526.023 373.124 554.368 345.135C582.713 317.146 607.001 305.829 627.233 311.182C647.465 316.536 671.754 305.218 700.099 277.229C728.444 249.24 752.732 237.923 772.964 243.276C793.196 248.63 817.484 237.312 845.829 209.323" stroke="#60C26F"/>
<path d="M166.408 654.508C194.753 626.519 219.042 615.201 239.274 620.555C259.505 625.909 283.794 614.591 312.139 586.602C340.484 558.613 364.772 547.295 385.004 552.649C405.236 558.003 429.525 546.685 457.87 518.696C486.215 490.707 510.503 479.389 530.735 484.743C550.967 490.097 575.255 478.779 603.6 450.79C631.945 422.801 656.234 411.483 676.466 416.837C696.698 422.191 720.986 410.873 749.331 382.884C777.676 354.895 801.964 343.577 822.196 348.931C842.428 354.285 866.717 342.967 895.062 314.978" stroke="#60C26F"/>
<path d="M215.64 760.162C243.985 732.173 268.273 720.856 288.505 726.209C308.737 731.563 333.025 720.245 361.37 692.256C389.715 664.267 414.004 652.95 434.236 658.303C454.468 663.657 478.756 652.339 507.101 624.35C535.446 596.361 559.735 585.044 579.966 590.397C600.198 595.751 624.487 584.433 652.832 556.444C681.177 528.455 705.465 517.138 725.697 522.491C745.929 527.845 770.218 516.527 798.563 488.538C826.908 460.549 851.196 449.232 871.428 454.585C891.66 459.939 915.948 448.621 944.293 420.632" stroke="#60C26F"/>
<path d="M264.871 865.818C293.216 837.829 317.505 826.511 337.736 831.865C357.968 837.218 382.257 825.901 410.602 797.912C438.947 769.923 463.235 758.605 483.467 763.959C503.699 769.312 527.988 757.995 556.333 730.006C584.678 702.017 608.966 690.699 629.198 696.053C649.43 701.406 673.718 690.089 702.063 662.1C730.408 634.111 754.697 622.793 774.929 628.147C795.161 633.5 819.449 622.183 847.794 594.194C876.139 566.205 900.427 554.887 920.659 560.241C940.891 565.594 965.18 554.277 993.525 526.288" stroke="#60C26F"/>
<path d="M314.103 971.472C342.449 943.483 366.737 932.166 386.969 937.519C407.201 942.873 431.489 931.555 459.834 903.566C488.179 875.577 512.468 864.26 532.7 869.613C552.931 874.967 577.22 863.649 605.565 835.66C633.91 807.671 658.198 796.354 678.43 801.707C698.662 807.061 722.951 795.743 751.296 767.754C779.641 739.765 803.929 728.448 824.161 733.801C844.393 739.155 868.681 727.837 897.026 699.848C925.371 671.859 949.66 660.542 969.892 665.895C990.124 671.249 1014.41 659.931 1042.76 631.942" stroke="#60C26F"/>
<path d="M363.335 1077.13C391.68 1049.14 415.968 1037.82 436.2 1043.17C456.432 1048.53 480.721 1037.21 509.066 1009.22C537.411 981.232 561.699 969.915 581.931 975.268C602.163 980.622 626.451 969.304 654.796 941.315C683.141 913.326 707.43 902.009 727.662 907.362C747.894 912.716 772.182 901.398 800.527 873.409C828.872 845.42 853.161 834.103 873.392 839.456C893.624 844.81 917.913 833.492 946.258 805.503C974.603 777.514 998.891 766.197 1019.12 771.55C1039.36 776.904 1063.64 765.586 1091.99 737.597" stroke="#60C26F"/>
<path d="M342.995 1076.74C320.954 1043.56 314.498 1017.55 323.628 998.719C332.758 979.888 326.303 953.881 304.262 920.7C282.221 887.518 275.765 861.511 284.895 842.68C294.026 823.848 287.57 797.841 265.529 764.66C243.488 731.478 237.033 705.471 246.163 686.64C255.293 667.808 248.837 641.801 226.796 608.62C204.755 575.438 198.3 549.432 207.43 530.6C216.56 511.768 210.104 485.761 188.063 452.58C166.023 419.398 159.567 393.392 168.697 374.56C177.827 355.728 171.372 329.722 149.331 296.54" stroke="#60C26F"/>
<path d="M456.124 1048.66C434.083 1015.48 427.627 989.47 436.757 970.638C445.887 951.807 439.432 925.8 417.391 892.618C395.35 859.437 388.894 833.43 398.024 814.599C407.154 795.767 400.699 769.76 378.658 736.579C356.617 703.397 350.162 677.39 359.292 658.559C368.422 639.727 361.966 613.72 339.925 580.539C317.884 547.357 311.429 521.351 320.559 502.519C329.689 483.687 323.233 457.68 301.192 424.499C279.151 391.317 272.696 365.311 281.826 346.479C290.956 327.647 284.501 301.641 262.46 268.459" stroke="#60C26F"/>
<path d="M569.252 1020.58C547.211 987.396 540.755 961.389 549.885 942.557C559.015 923.726 552.56 897.719 530.519 864.537C508.478 831.356 502.022 805.349 511.152 786.517C520.282 767.686 513.827 741.679 491.786 708.498C469.745 675.316 463.289 649.309 472.42 630.478C481.55 611.646 475.094 585.639 453.053 552.458C431.012 519.276 424.557 493.269 433.687 474.438C442.817 455.606 436.361 429.599 414.32 396.418C392.279 363.236 385.824 337.23 394.954 318.398C404.084 299.566 397.628 273.56 375.588 240.378" stroke="#60C26F"/>
<path d="M682.381 992.496C660.34 959.314 653.885 933.307 663.015 914.476C672.145 895.644 665.69 869.637 643.649 836.456C621.608 803.274 615.152 777.268 624.282 758.436C633.412 739.604 626.957 713.598 604.916 680.416C582.875 647.234 576.419 621.228 585.549 602.396C594.679 583.564 588.224 557.558 566.183 524.376C544.142 491.195 537.687 465.188 546.817 446.356C555.947 427.524 549.491 401.518 527.45 368.336C505.409 335.155 498.954 309.148 508.084 290.316C517.214 271.485 510.758 245.478 488.717 212.296" stroke="#60C26F"/>
<path d="M795.509 964.415C773.468 931.233 767.013 905.226 776.143 886.395C785.273 867.563 778.817 841.556 756.777 808.375C734.736 775.193 728.28 749.187 737.41 730.355C746.54 711.523 740.085 685.517 718.044 652.335C696.003 619.153 689.547 593.147 698.677 574.315C707.807 555.483 701.352 529.477 679.311 496.295C657.27 463.114 650.814 437.107 659.945 418.275C669.075 399.443 662.619 373.437 640.578 340.255C618.537 307.074 612.082 281.067 621.212 262.235C630.342 243.404 623.886 217.397 601.845 184.215" stroke="#60C26F"/>
<path d="M908.638 936.334C886.597 903.152 880.142 877.145 889.272 858.314C898.402 839.482 891.946 813.475 869.905 780.294C847.864 747.112 841.409 721.106 850.539 702.274C859.669 683.442 853.214 657.435 831.173 624.254C809.132 591.072 802.676 565.066 811.806 546.234C820.936 527.402 814.481 501.396 792.44 468.214C770.399 435.032 763.943 409.026 773.073 390.194C782.203 371.362 775.748 345.356 753.707 312.174C731.666 278.993 725.211 252.986 734.341 234.154C743.471 215.323 737.015 189.316 714.974 156.134" stroke="#60C26F"/>
<path d="M1021.77 908.252C999.727 875.07 993.272 849.063 1002.4 830.232C1011.53 811.4 1005.08 785.393 983.035 752.212C960.994 719.03 954.539 693.023 963.669 674.192C972.799 655.36 966.343 629.353 944.303 596.172C922.262 562.99 915.806 536.984 924.936 518.152C934.066 499.32 927.611 473.314 905.57 440.132C883.529 406.95 877.073 380.944 886.203 362.112C895.333 343.28 888.878 317.274 866.837 284.092C844.796 250.911 838.34 224.904 847.471 206.072C856.601 187.24 850.145 161.234 828.104 128.052" stroke="#60C26F"/>
</g>
<defs>
<filter id="filter0_d_662_6047" x="47.5928" y="89.313" width="1064.75" height="1014.17" filterUnits="userSpaceOnUse" color-interpolation-filters="sRGB">
<feFlood flood-opacity="0" result="BackgroundImageFix"/>
<feColorMatrix in="SourceAlpha" type="matrix" values="0 0 0 0 0 0 0 0 0 0 0 0 0 0 0 0 0 0 127 0" result="hardAlpha"/>
<feOffset dy="6"/>
<feGaussianBlur stdDeviation="10"/>
<feComposite in2="hardAlpha" operator="out"/>
<feColorMatrix type="matrix" values="0 0 0 0 0 0 0 0 0 0 0 0 0 0 0 0 0 0 0.9 0"/>
<feBlend mode="normal" in2="BackgroundImageFix" result="effect1_dropShadow_662_6047"/>
<feBlend mode="normal" in="SourceGraphic" in2="effect1_dropShadow_662_6047" result="shape"/>
</filter>
</defs>
</svg>
