<svg width="1172" height="1205" viewBox="0 0 1172 1205" fill="none" xmlns="http://www.w3.org/2000/svg">
<g opacity="0.3" filter="url(#filter0_d_662_6047)">
<path d="M67.9433 443.199C96.2883 415.21 120.577 403.892 140.809 409.246C161.041 414.6 185.329 403.282 213.674 375.293C242.019 347.304 266.308 335.986 286.539 341.34C306.771 346.694 331.06 335.376 359.405 307.387C387.75 279.398 412.038 268.08 432.27 273.434C452.502 278.788 476.791 267.47 505.136 239.481C533.481 211.492 557.769 200.174 578.001 205.528C598.233 210.882 622.521 199.564 650.866 171.575C679.211 143.586 703.5 132.268 723.732 137.622C743.963 142.976 768.252 131.658 796.597 103.669" stroke="#60C26F"/>
<path d="M117.175 548.854C145.52 520.865 169.808 509.548 190.04 514.901C210.272 520.255 234.561 508.937 262.906 480.948C291.251 452.959 315.539 441.642 335.771 446.995C356.003 452.349 380.291 441.031 408.636 413.042C436.981 385.053 461.27 373.736 481.502 379.089C501.733 384.443 526.022 373.125 554.367 345.136C582.712 317.147 607 305.83 627.232 311.183C647.464 316.537 671.753 305.219 700.098 277.23C728.443 249.241 752.731 237.924 772.963 243.277C793.195 248.631 817.483 237.313 845.828 209.324" stroke="#60C26F"/>
<path d="M166.407 654.509C194.752 626.52 219.041 615.202 239.273 620.556C259.504 625.909 283.793 614.592 312.138 586.603C340.483 558.614 364.771 547.296 385.003 552.65C405.235 558.003 429.524 546.686 457.869 518.697C486.214 490.708 510.502 479.39 530.734 484.744C550.966 490.097 575.254 478.78 603.599 450.791C631.944 422.802 656.233 411.484 676.465 416.838C696.697 422.191 720.985 410.874 749.33 382.885C777.675 354.896 801.964 343.578 822.195 348.932C842.427 354.285 866.716 342.968 895.061 314.979" stroke="#60C26F"/>
<path d="M215.64 760.163C243.985 732.174 268.273 720.856 288.505 726.21C308.737 731.563 333.025 720.246 361.37 692.257C389.715 664.268 414.004 652.95 434.236 658.304C454.468 663.657 478.756 652.34 507.101 624.351C535.446 596.362 559.735 585.044 579.966 590.398C600.198 595.751 624.487 584.434 652.832 556.445C681.177 528.456 705.465 517.138 725.697 522.492C745.929 527.846 770.218 516.528 798.563 488.539C826.908 460.55 851.196 449.232 871.428 454.586C891.66 459.94 915.948 448.622 944.293 420.633" stroke="#60C26F"/>
<path d="M264.871 865.818C293.216 837.829 317.505 826.512 337.736 831.865C357.968 837.219 382.257 825.901 410.602 797.912C438.947 769.923 463.235 758.606 483.467 763.959C503.699 769.313 527.988 757.995 556.333 730.006C584.678 702.017 608.966 690.7 629.198 696.053C649.43 701.407 673.718 690.089 702.063 662.1C730.408 634.111 754.697 622.794 774.929 628.147C795.161 633.501 819.449 622.183 847.794 594.194C876.139 566.205 900.427 554.888 920.659 560.241C940.891 565.595 965.18 554.277 993.525 526.288" stroke="#60C26F"/>
<path d="M314.103 971.472C342.448 943.483 366.736 932.166 386.968 937.519C407.2 942.873 431.488 931.555 459.833 903.566C488.178 875.577 512.467 864.26 532.699 869.613C552.931 874.967 577.219 863.649 605.564 835.66C633.909 807.671 658.197 796.354 678.429 801.707C698.661 807.061 722.95 795.743 751.295 767.754C779.64 739.765 803.928 728.448 824.16 733.801C844.392 739.155 868.68 727.837 897.025 699.848C925.37 671.859 949.659 660.542 969.891 665.895C990.123 671.249 1014.41 659.931 1042.76 631.942" stroke="#60C26F"/>
<path d="M363.334 1077.13C391.679 1049.14 415.967 1037.82 436.199 1043.17C456.431 1048.53 480.72 1037.21 509.065 1009.22C537.41 981.233 561.698 969.915 581.93 975.269C602.162 980.622 626.45 969.305 654.795 941.316C683.14 913.327 707.429 902.009 727.661 907.363C747.893 912.716 772.181 901.399 800.526 873.41C828.871 845.421 853.16 834.103 873.391 839.457C893.623 844.81 917.912 833.493 946.257 805.504C974.602 777.515 998.89 766.197 1019.12 771.551C1039.35 776.904 1063.64 765.587 1091.99 737.598" stroke="#60C26F"/>
<path d="M342.995 1076.74C320.954 1043.56 314.498 1017.55 323.628 998.719C332.758 979.888 326.303 953.881 304.262 920.7C282.221 887.518 275.765 861.511 284.895 842.68C294.026 823.848 287.57 797.841 265.529 764.66C243.488 731.478 237.033 705.471 246.163 686.64C255.293 667.808 248.837 641.801 226.796 608.62C204.755 575.438 198.3 549.432 207.43 530.6C216.56 511.768 210.104 485.761 188.063 452.58C166.023 419.398 159.567 393.392 168.697 374.56C177.827 355.728 171.372 329.722 149.331 296.54" stroke="#60C26F"/>
<path d="M456.124 1048.66C434.083 1015.48 427.627 989.47 436.757 970.638C445.887 951.807 439.432 925.8 417.391 892.618C395.35 859.437 388.894 833.43 398.024 814.599C407.154 795.767 400.699 769.76 378.658 736.579C356.617 703.397 350.162 677.39 359.292 658.559C368.422 639.727 361.966 613.72 339.925 580.539C317.884 547.357 311.429 521.351 320.559 502.519C329.689 483.687 323.233 457.68 301.192 424.499C279.151 391.317 272.696 365.311 281.826 346.479C290.956 327.647 284.501 301.641 262.46 268.459" stroke="#60C26F"/>
<path d="M569.252 1020.58C547.211 987.396 540.755 961.389 549.885 942.557C559.015 923.726 552.56 897.719 530.519 864.537C508.478 831.356 502.022 805.349 511.152 786.517C520.282 767.686 513.827 741.679 491.786 708.498C469.745 675.316 463.289 649.309 472.42 630.478C481.55 611.646 475.094 585.639 453.053 552.458C431.012 519.276 424.557 493.269 433.687 474.438C442.817 455.606 436.361 429.599 414.32 396.418C392.279 363.236 385.824 337.23 394.954 318.398C404.084 299.566 397.628 273.56 375.588 240.378" stroke="#60C26F"/>
<path d="M682.381 992.495C660.34 959.314 653.885 933.307 663.015 914.475C672.145 895.644 665.69 869.637 643.649 836.455C621.608 803.274 615.152 777.267 624.282 758.435C633.412 739.604 626.957 713.597 604.916 680.416C582.875 647.234 576.419 621.227 585.549 602.396C594.679 583.564 588.224 557.557 566.183 524.376C544.142 491.194 537.687 465.187 546.817 446.356C555.947 427.524 549.491 401.517 527.45 368.336C505.409 335.154 498.954 309.148 508.084 290.316C517.214 271.484 510.758 245.477 488.717 212.296" stroke="#60C26F"/>
<path d="M795.509 964.414C773.468 931.233 767.013 905.226 776.143 886.394C785.273 867.563 778.817 841.556 756.777 808.374C734.736 775.193 728.28 749.186 737.41 730.354C746.54 711.523 740.085 685.516 718.044 652.334C696.003 619.153 689.547 593.146 698.677 574.315C707.807 555.483 701.352 529.476 679.311 496.295C657.27 463.113 650.814 437.106 659.945 418.275C669.075 399.443 662.619 373.436 640.578 340.255C618.537 307.073 612.082 281.067 621.212 262.235C630.342 243.403 623.886 217.396 601.845 184.215" stroke="#60C26F"/>
<path d="M908.638 936.333C886.597 903.152 880.142 877.145 889.272 858.313C898.402 839.481 891.946 813.475 869.905 780.293C847.864 747.112 841.409 721.105 850.539 702.273C859.669 683.442 853.214 657.435 831.173 624.253C809.132 591.072 802.676 565.065 811.806 546.233C820.936 527.402 814.481 501.395 792.44 468.214C770.399 435.032 763.943 409.025 773.073 390.194C782.203 371.362 775.748 345.355 753.707 312.174C731.666 278.992 725.211 252.985 734.341 234.154C743.471 215.322 737.015 189.315 714.974 156.134" stroke="#60C26F"/>
<path d="M1021.77 908.252C999.727 875.07 993.272 849.064 1002.4 830.232C1011.53 811.4 1005.08 785.394 983.035 752.212C960.994 719.031 954.539 693.024 963.669 674.192C972.799 655.361 966.343 629.354 944.303 596.172C922.262 562.991 915.806 536.984 924.936 518.152C934.066 499.321 927.611 473.314 905.57 440.132C883.529 406.951 877.073 380.944 886.203 362.113C895.333 343.281 888.878 317.274 866.837 284.093C844.796 250.911 838.34 224.904 847.471 206.073C856.601 187.241 850.145 161.234 828.104 128.053" stroke="#60C26F"/>
</g>
<defs>
<filter id="filter0_d_662_6047" x="47.5918" y="89.3135" width="1064.75" height="1014.17" filterUnits="userSpaceOnUse" color-interpolation-filters="sRGB">
<feFlood flood-opacity="0" result="BackgroundImageFix"/>
<feColorMatrix in="SourceAlpha" type="matrix" values="0 0 0 0 0 0 0 0 0 0 0 0 0 0 0 0 0 0 127 0" result="hardAlpha"/>
<feOffset dy="6"/>
<feGaussianBlur stdDeviation="10"/>
<feComposite in2="hardAlpha" operator="out"/>
<feColorMatrix type="matrix" values="0 0 0 0 0 0 0 0 0 0 0 0 0 0 0 0 0 0 0.9 0"/>
<feBlend mode="normal" in2="BackgroundImageFix" result="effect1_dropShadow_662_6047"/>
<feBlend mode="normal" in="SourceGraphic" in2="effect1_dropShadow_662_6047" result="shape"/>
</filter>
</defs>
</svg>
