<svg width="38" height="35" viewBox="0 0 38 35" fill="none" xmlns="http://www.w3.org/2000/svg">
<path fill-rule="evenodd" clip-rule="evenodd" d="M9.50018 4.92252V7.7637L6.11232 8.03716C3.71696 8.23051 1.76302 10.0341 1.37885 12.4063C1.29536 12.9219 1.21943 13.4383 1.15106 13.9556C1.11714 14.2122 1.25401 14.4607 1.488 14.5715L1.64211 14.6444C12.4995 19.7854 25.5009 19.7854 36.3583 14.6444L36.5123 14.5715C36.7463 14.4607 36.8832 14.2122 36.8493 13.9556C36.7809 13.4384 36.705 12.9219 36.6215 12.4063C36.2373 10.0341 34.2834 8.23051 31.888 8.03716L28.5002 7.7637V4.92252C28.5002 3.19003 27.2327 1.71824 25.5194 1.46124L23.0795 1.09527C20.3751 0.689599 17.6253 0.689599 14.9208 1.09527L12.481 1.46124C10.7677 1.71824 9.50018 3.19003 9.50018 4.92252ZM22.6345 4.06207C20.2251 3.70066 17.7753 3.70066 15.3658 4.06208L12.926 4.42805C12.6813 4.46476 12.5002 4.67502 12.5002 4.92252V7.55254C16.83 7.30451 21.1704 7.30451 25.5002 7.55255V4.92252C25.5002 4.67502 25.3191 4.46476 25.0744 4.42805L22.6345 4.06207Z" fill="#0A4200"/>
<path d="M37.2368 18.1419C37.2219 17.8617 36.9285 17.6866 36.6719 17.8002C25.5301 22.7334 12.4703 22.7334 1.32842 17.8002C1.07183 17.6866 0.778459 17.8616 0.763539 18.1419C0.559993 21.9647 0.765097 25.804 1.37885 29.5939C1.76302 31.9662 3.71696 33.7697 6.11232 33.9631L9.85616 34.2653C15.9423 34.7565 22.0581 34.7565 28.1442 34.2653L31.888 33.9631C34.2834 33.7697 36.2373 31.9662 36.6215 29.5939C37.2352 25.804 37.4403 21.9648 37.2368 18.1419Z" fill="#0A4200"/>
</svg>
