<svg width="40" height="41" viewBox="0 0 40 41" fill="none" xmlns="http://www.w3.org/2000/svg">
<path fill-rule="evenodd" clip-rule="evenodd" d="M33.3337 6.33301C33.9967 6.33301 34.6326 6.5964 35.1014 7.06524C35.5703 7.53408 35.8337 8.16997 35.8337 8.83301V32.1663C35.8337 32.8294 35.5703 33.4653 35.1014 33.9341C34.6326 34.4029 33.9967 34.6663 33.3337 34.6663C32.6706 34.6663 32.0347 34.4029 31.5659 33.9341C31.0971 33.4653 30.8337 32.8294 30.8337 32.1663V8.83301C30.8337 8.16997 31.0971 7.53408 31.5659 7.06524C32.0347 6.5964 32.6706 6.33301 33.3337 6.33301ZM26.667 11.333C27.33 11.333 27.9659 11.5964 28.4348 12.0652C28.9036 12.5341 29.167 13.17 29.167 13.833V32.1663C29.167 32.8294 28.9036 33.4653 28.4348 33.9341C27.9659 34.4029 27.33 34.6663 26.667 34.6663C26.004 34.6663 25.3681 34.4029 24.8992 33.9341C24.4304 33.4653 24.167 32.8294 24.167 32.1663V13.833C24.167 13.17 24.4304 12.5341 24.8992 12.0652C25.3681 11.5964 26.004 11.333 26.667 11.333ZM20.0003 16.333C20.6634 16.333 21.2993 16.5964 21.7681 17.0652C22.2369 17.5341 22.5003 18.17 22.5003 18.833V32.1663C22.5003 32.8294 22.2369 33.4653 21.7681 33.9341C21.2993 34.4029 20.6634 34.6663 20.0003 34.6663C19.3373 34.6663 18.7014 34.4029 18.2326 33.9341C17.7637 33.4653 17.5003 32.8294 17.5003 32.1663V18.833C17.5003 18.17 17.7637 17.5341 18.2326 17.0652C18.7014 16.5964 19.3373 16.333 20.0003 16.333ZM13.3337 21.333C13.9967 21.333 14.6326 21.5964 15.1014 22.0652C15.5703 22.5341 15.8337 23.17 15.8337 23.833V32.1663C15.8337 32.8294 15.5703 33.4653 15.1014 33.9341C14.6326 34.4029 13.9967 34.6663 13.3337 34.6663C12.6706 34.6663 12.0347 34.4029 11.5659 33.9341C11.0971 33.4653 10.8337 32.8294 10.8337 32.1663V23.833C10.8337 23.17 11.0971 22.5341 11.5659 22.0652C12.0347 21.5964 12.6706 21.333 13.3337 21.333ZM6.66699 26.333C7.33003 26.333 7.96592 26.5964 8.43476 27.0652C8.9036 27.5341 9.16699 28.17 9.16699 28.833V32.1663C9.16699 32.8294 8.9036 33.4653 8.43476 33.9341C7.96592 34.4029 7.33003 34.6663 6.66699 34.6663C6.00395 34.6663 5.36807 34.4029 4.89923 33.9341C4.43038 33.4653 4.16699 32.8294 4.16699 32.1663V28.833C4.16699 28.17 4.43038 27.5341 4.89923 27.0652C5.36807 26.5964 6.00395 26.333 6.66699 26.333Z" fill="#117000"/>
</svg>
