<svg width="20" height="19" viewBox="0 0 20 19" fill="none" xmlns="http://www.w3.org/2000/svg">
<path d="M13.9997 4.49956C13.9997 3.94727 14.4474 3.49956 14.9997 3.49956C15.552 3.49956 15.9997 3.94727 15.9997 4.49956C15.9997 5.05184 15.552 5.49956 14.9997 5.49956C14.4474 5.49956 13.9997 5.05184 13.9997 4.49956Z" fill="#111311"/>
<path fill-rule="evenodd" clip-rule="evenodd" d="M9.99969 4.74956C7.37634 4.74956 5.24969 6.8762 5.24969 9.49956C5.24969 12.1229 7.37634 14.2496 9.99969 14.2496C12.623 14.2496 14.7497 12.1229 14.7497 9.49956C14.7497 6.8762 12.623 4.74956 9.99969 4.74956ZM6.74969 9.49956C6.74969 7.70463 8.20477 6.24956 9.99969 6.24956C11.7946 6.24956 13.2497 7.70463 13.2497 9.49956C13.2497 11.2945 11.7946 12.7496 9.99969 12.7496C8.20477 12.7496 6.74969 11.2945 6.74969 9.49956Z" fill="#111311"/>
<path fill-rule="evenodd" clip-rule="evenodd" d="M15.2579 0.332573C11.7914 -0.054868 8.20804 -0.054868 4.74146 0.332573C2.72941 0.55745 1.10507 2.14246 0.868521 4.16499C0.453983 7.70929 0.453983 11.2898 0.868521 14.8341C1.10507 16.8567 2.72941 18.4417 4.74146 18.6665C8.20804 19.054 11.7914 19.054 15.2579 18.6665C17.27 18.4417 18.8943 16.8567 19.1309 14.8341C19.5454 11.2898 19.5454 7.70929 19.1309 4.16499C18.8943 2.14246 17.27 0.55745 15.2579 0.332573ZM4.90807 1.82329C8.26392 1.44823 11.7355 1.44823 15.0913 1.82329C16.4214 1.97195 17.4869 3.02156 17.641 4.33924C18.042 7.76777 18.042 11.2313 17.641 14.6599C17.4869 15.9775 16.4214 17.0272 15.0913 17.1758C11.7355 17.5509 8.26392 17.5509 4.90807 17.1758C3.57797 17.0272 2.51248 15.9775 2.35837 14.6599C1.95737 11.2313 1.95737 7.76777 2.35837 4.33924C2.51248 3.02156 3.57797 1.97195 4.90807 1.82329Z" fill="#111311"/>
</svg>
