<svg width="40" height="41" viewBox="0 0 40 41" fill="none" xmlns="http://www.w3.org/2000/svg">
<path d="M6.27019 14.2798C8.13619 12.8298 9.68419 13.8298 11.7502 16.2218C11.9822 16.4918 12.2942 16.1758 12.4722 16.0218C12.6482 15.8658 15.3742 13.4118 15.5082 13.2998C15.6402 13.1818 15.8002 12.9618 15.5902 12.7158C15.0843 12.0901 14.5889 11.456 14.1042 10.8138C10.4882 6.08384 23.9962 2.87584 21.9222 2.82584C20.8662 2.79784 16.6302 2.74784 15.9962 2.81784C13.4302 3.08784 10.2082 5.48584 8.58619 6.60384C6.46419 8.05584 5.67219 8.90784 5.54219 9.02584C4.94219 9.54984 5.44619 10.7598 4.35819 11.7138C3.20819 12.7198 2.49019 11.9578 1.82419 12.5418C1.49419 12.8338 0.570185 13.5258 0.306185 13.7558C0.0401854 13.9898 -0.00781465 14.3838 0.264185 14.6978C0.264185 14.6978 2.79219 17.4898 3.00419 17.7378C3.21419 17.9818 3.78619 18.1938 4.13819 17.8798C4.49219 17.5678 5.40219 16.7738 5.55419 16.6338C5.71019 16.5018 5.45419 14.9118 6.27019 14.2798ZM17.6862 15.3138C17.4462 15.0358 17.1482 15.0278 16.8922 15.2558L14.0242 17.7598C13.9135 17.8603 13.846 17.9998 13.8359 18.149C13.8258 18.2981 13.874 18.4454 13.9702 18.5598L30.5582 37.4378C30.9462 37.8838 31.6182 37.9298 32.0602 37.5438L34.0002 35.9178C34.2137 35.7298 34.3444 35.4651 34.3639 35.1812C34.3834 34.8974 34.2901 34.6173 34.1042 34.4018L17.6862 15.3138ZM39.8042 7.27984C39.6562 6.29184 39.1442 6.49784 38.8782 6.91584C38.6122 7.33784 37.4362 9.11984 36.9522 9.92784C36.4722 10.7278 35.2882 12.3098 33.0842 10.7478C30.7882 9.12584 31.5862 7.99384 31.9862 7.23184C32.3882 6.46584 33.6222 4.31784 33.8002 4.05184C33.9782 3.78184 33.7702 2.99784 33.0582 3.32584C32.3442 3.65384 28.0122 5.37584 27.4122 7.84584C26.7982 10.3578 27.9262 12.6038 25.7122 14.8338L23.0262 17.6338L25.7242 20.7658L29.0322 17.6258C29.8202 16.8338 31.5042 16.0638 33.0282 16.4118C36.2942 17.1498 38.0762 15.9238 39.1502 13.8958C40.1142 12.0838 39.9542 8.26784 39.8042 7.27984ZM5.47819 34.6058C5.27813 34.8074 5.16587 35.0799 5.16587 35.3638C5.16587 35.6478 5.27813 35.9203 5.47819 36.1218L7.38019 37.9818C7.79619 38.3998 8.45619 38.2238 8.87219 37.8058L18.6862 28.1578L15.6802 24.7298L5.47819 34.6058Z" fill="#1DC200"/>
</svg>
