<svg width="46" height="41" viewBox="0 0 46 41" fill="none" xmlns="http://www.w3.org/2000/svg">
<path fill-rule="evenodd" clip-rule="evenodd" d="M41.6663 0.666992C42.5946 0.666992 43.4848 1.03574 44.1412 1.69212C44.7976 2.3485 45.1663 3.23873 45.1663 4.16699V36.8337C45.1663 37.7619 44.7976 38.6522 44.1412 39.3085C43.4848 39.9649 42.5946 40.3337 41.6663 40.3337C40.7381 40.3337 39.8479 39.9649 39.1915 39.3085C38.5351 38.6522 38.1663 37.7619 38.1663 36.8337V4.16699C38.1663 3.23873 38.5351 2.3485 39.1915 1.69212C39.8479 1.03574 40.7381 0.666992 41.6663 0.666992ZM32.333 7.66699C33.2613 7.66699 34.1515 8.03574 34.8079 8.69212C35.4643 9.3485 35.833 10.2387 35.833 11.167V36.8337C35.833 37.7619 35.4643 38.6522 34.8079 39.3085C34.1515 39.9649 33.2613 40.3337 32.333 40.3337C31.4048 40.3337 30.5145 39.9649 29.8581 39.3085C29.2018 38.6522 28.833 37.7619 28.833 36.8337V11.167C28.833 10.2387 29.2018 9.3485 29.8581 8.69212C30.5145 8.03574 31.4048 7.66699 32.333 7.66699ZM22.9997 14.667C23.9279 14.667 24.8182 15.0357 25.4746 15.6921C26.1309 16.3485 26.4997 17.2387 26.4997 18.167V36.8337C26.4997 37.7619 26.1309 38.6522 25.4746 39.3085C24.8182 39.9649 23.9279 40.3337 22.9997 40.3337C22.0714 40.3337 21.1812 39.9649 20.5248 39.3085C19.8684 38.6522 19.4997 37.7619 19.4997 36.8337V18.167C19.4997 17.2387 19.8684 16.3485 20.5248 15.6921C21.1812 15.0357 22.0714 14.667 22.9997 14.667ZM13.6663 21.667C14.5946 21.667 15.4848 22.0357 16.1412 22.6921C16.7976 23.3485 17.1663 24.2387 17.1663 25.167V36.8337C17.1663 37.7619 16.7976 38.6522 16.1412 39.3085C15.4848 39.9649 14.5946 40.3337 13.6663 40.3337C12.7381 40.3337 11.8478 39.9649 11.1915 39.3085C10.5351 38.6522 10.1663 37.7619 10.1663 36.8337V25.167C10.1663 24.2387 10.5351 23.3485 11.1915 22.6921C11.8478 22.0357 12.7381 21.667 13.6663 21.667ZM4.33301 28.667C5.26127 28.667 6.1515 29.0357 6.80788 29.6921C7.46426 30.3485 7.83301 31.2387 7.83301 32.167V36.8337C7.83301 37.7619 7.46426 38.6522 6.80788 39.3085C6.1515 39.9649 5.26127 40.3337 4.33301 40.3337C3.40475 40.3337 2.51451 39.9649 1.85813 39.3085C1.20176 38.6522 0.833008 37.7619 0.833008 36.8337V32.167C0.833008 31.2387 1.20176 30.3485 1.85813 29.6921C2.51451 29.0357 3.40475 28.667 4.33301 28.667Z" fill="#F7F8F7"/>
</svg>
