<svg width="21" height="22" viewBox="0 0 21 22" fill="none" xmlns="http://www.w3.org/2000/svg">
<path fill-rule="evenodd" clip-rule="evenodd" d="M3 0.75C1.48122 0.75 0.25 1.98122 0.25 3.5C0.25 5.01878 1.48122 6.25 3 6.25C4.51878 6.25 5.75 5.01878 5.75 3.5C5.75 1.98122 4.51878 0.75 3 0.75ZM1.75 3.5C1.75 2.80964 2.30964 2.25 3 2.25C3.69036 2.25 4.25 2.80964 4.25 3.5C4.25 4.19036 3.69036 4.75 3 4.75C2.30964 4.75 1.75 4.19036 1.75 3.5Z" fill="#111311"/>
<path fill-rule="evenodd" clip-rule="evenodd" d="M0.25 7.5C0.25 7.08579 0.585786 6.75 1 6.75H5C5.41421 6.75 5.75 7.08579 5.75 7.5V20.5C5.75 20.9142 5.41421 21.25 5 21.25H1C0.585786 21.25 0.25 20.9142 0.25 20.5V7.5ZM1.75 8.25V19.75H4.25V8.25H1.75Z" fill="#111311"/>
<path fill-rule="evenodd" clip-rule="evenodd" d="M7.25 7.5C7.25 7.08579 7.58579 6.75 8 6.75H12C12.4142 6.75 12.75 7.08579 12.75 7.5V7.93402L13.1853 7.74748C13.9336 7.42676 14.7339 7.22565 15.5433 7.15207C18.3182 6.8998 20.75 9.08038 20.75 11.8802V20.5C20.75 20.9142 20.4142 21.25 20 21.25H16C15.5858 21.25 15.25 20.9142 15.25 20.5V13.5C15.25 13.1685 15.1183 12.8505 14.8839 12.6161C14.6495 12.3817 14.3315 12.25 14 12.25C13.6685 12.25 13.3505 12.3817 13.1161 12.6161C12.8817 12.8505 12.75 13.1685 12.75 13.5V20.5C12.75 20.9142 12.4142 21.25 12 21.25H8C7.58579 21.25 7.25 20.9142 7.25 20.5V7.5ZM8.75 8.25V19.75H11.25V13.5C11.25 12.7707 11.5397 12.0712 12.0555 11.5555C12.5712 11.0397 13.2707 10.75 14 10.75C14.7293 10.75 15.4288 11.0397 15.9445 11.5555C16.4603 12.0712 16.75 12.7707 16.75 13.5V19.75H19.25V11.8802C19.25 9.97587 17.589 8.47227 15.6791 8.64591C15.025 8.70536 14.3784 8.86807 13.7762 9.1262L12.2954 9.76079C12.0637 9.8601 11.7976 9.83634 11.5871 9.69756C11.3767 9.55878 11.25 9.32354 11.25 9.07143V8.25H8.75Z" fill="#111311"/>
</svg>
