<svg width="353" height="74" viewBox="0 0 353 74" fill="none" xmlns="http://www.w3.org/2000/svg">
    <path d="M31 51.8696C30.25 52.1996 29.7 52.4296 29.35 52.5396C26.8699 53.5054 24.2315 54.0005 21.57 53.9996C18.0307 54.0125 14.5422 53.1576 11.41 51.5096C8.32281 49.9097 5.70403 47.5355 3.80996 44.6196C2.17483 42.0212 1.21015 39.0576 1.00246 35.9946C0.79477 32.9316 1.35055 29.8649 2.61996 27.0696C3.70412 24.7492 5.2448 22.6712 7.14996 20.9596C9.06768 19.203 11.3142 17.8435 13.76 16.9596C16.2524 16.0026 18.9002 15.5144 21.57 15.5196C24.2335 15.5183 26.8755 15.9959 29.37 16.9296C31.8157 17.8135 34.0623 19.173 35.98 20.9296C37.8957 22.6409 39.4496 24.7184 40.55 27.0396C41.6572 29.4438 42.2206 32.0627 42.2 34.7096V53.0196L31 52.9296V51.8696ZM13.48 30.1796C12.6204 31.537 12.1691 33.1129 12.18 34.7196C12.1738 35.929 12.4216 37.1263 12.9074 38.2339C13.3931 39.3416 14.106 40.3349 15 41.1496C16.7683 42.8621 19.1334 43.8195 21.595 43.8195C24.0566 43.8195 26.4217 42.8621 28.19 41.1496C29.0821 40.334 29.7931 39.3403 30.2771 38.2327C30.7612 37.1251 31.0074 35.9283 31 34.7196C31.0058 33.1136 30.5549 31.5391 29.7 30.1796C28.8355 28.8048 27.6387 27.6699 26.22 26.8796C24.8056 26.0923 23.2137 25.6792 21.595 25.6792C19.9763 25.6792 18.3843 26.0923 16.97 26.8796C15.5476 27.6686 14.3472 28.8036 13.48 30.1796Z" fill="#1E1E1E"/>
    <path d="M45.7598 3H56.9998V52.86L45.7598 53V3Z" fill="#1E1E1E"/>
    <path d="M99.7995 34.9995V54.0595V56.6595C99.8813 60.0799 98.8541 63.435 96.8714 66.2233C94.8888 69.0116 92.0571 71.0836 88.7995 72.1295C86.5221 72.9526 84.1211 73.3821 81.6995 73.3995H79.6995C74.3662 73.2795 70.1129 71.6495 66.9395 68.5095C64.7729 66.3495 63.4595 64.4495 62.9995 62.8095L73.7195 56.5895C73.8316 58.398 74.6506 60.0898 75.9995 61.2995C76.6407 61.9253 77.3993 62.418 78.2317 62.7492C79.064 63.0805 79.9538 63.2437 80.8495 63.2295C82.2641 63.2199 83.6448 62.7949 84.8199 62.0073C85.995 61.2197 86.9129 60.1043 87.4595 58.7995V58.6595L87.5295 58.4795L87.6695 57.9895C87.7675 57.719 87.828 57.4364 87.8495 57.1495V56.9995V56.8995V56.7595V56.5495V52.8495L87.5695 52.9895L87.2895 53.0995C84.9788 54.0619 82.5026 54.5646 79.9995 54.5795C76.6291 54.5928 73.3158 53.7092 70.3995 52.0195C67.3846 50.3264 64.8782 47.8567 63.1407 44.8672C61.4032 41.8776 60.4982 38.4773 60.5195 35.0195C60.4924 32.359 61.0345 29.7234 62.1095 27.2895C63.1112 24.9307 64.5691 22.7931 66.3995 20.9995C70.0612 17.4945 74.9308 15.5324 79.9995 15.5195C84.3595 15.5195 87.5895 16.0895 89.6995 17.2095C96.4395 20.0895 99.8062 26.0195 99.7995 34.9995ZM74.3095 41.2295C75.1472 42.0822 76.1464 42.7594 77.2486 43.2217C78.3509 43.684 79.5342 43.9221 80.7295 43.9221C81.9248 43.9221 83.1081 43.684 84.2104 43.2217C85.3127 42.7594 86.3118 42.0822 87.1495 41.2295C88.0272 40.4043 88.724 39.4058 89.1957 38.2972C89.6673 37.1886 89.9036 35.9942 89.8895 34.7895C89.8915 33.2008 89.4518 31.6428 88.6195 30.2895C87.8037 28.9186 86.6458 27.7831 85.2592 26.9943C83.8726 26.2055 82.3048 25.7903 80.7095 25.7895C79.1422 25.7829 77.6019 26.1973 76.2495 26.9895C74.8488 27.7791 73.6746 28.9154 72.8395 30.2895C72.0073 31.6428 71.5676 33.2008 71.5695 34.7895C71.5513 35.9992 71.7855 37.1994 72.2573 38.3134C72.7291 39.4275 73.4281 40.4309 74.3095 41.2595V41.2295Z" fill="#1E1E1E"/>
    <path d="M113.8 51.5595C110.707 49.9536 108.09 47.564 106.21 44.6295C104.575 42.026 103.609 39.0586 103.398 35.9915C103.186 32.9243 103.737 29.8526 105 27.0495C106.088 24.7172 107.631 22.6262 109.54 20.8995C111.482 19.1602 113.734 17.8031 116.18 16.8995C121.203 15.0192 126.737 15.0192 131.76 16.8995C134.213 17.7871 136.468 19.1459 138.4 20.8995C140.332 22.6183 141.897 24.7102 143 27.0495C144.078 29.4611 144.635 32.073 144.635 34.7145C144.635 37.3561 144.078 39.968 143 42.3795C141.912 44.7403 140.358 46.8562 138.43 48.5995C136.489 50.3525 134.237 51.7262 131.79 52.6495C128.886 53.765 125.777 54.2449 122.672 54.0569C119.566 53.8689 116.538 53.0173 113.79 51.5595H113.8ZM117.39 41.1895C119.147 42.9203 121.514 43.8904 123.98 43.8904C126.446 43.8904 128.813 42.9203 130.57 41.1895C131.466 40.369 132.18 39.3688 132.664 38.254C133.148 37.1392 133.392 35.9349 133.38 34.7195C133.391 33.1129 132.939 31.537 132.08 30.1795C131.221 28.8003 130.023 27.6642 128.6 26.8795C127.193 26.0734 125.601 25.6493 123.98 25.6493C122.359 25.6493 120.766 26.0734 119.36 26.8795C117.937 27.6642 116.739 28.8003 115.88 30.1795C115.02 31.537 114.569 33.1129 114.58 34.7195C114.567 35.9349 114.811 37.1392 115.295 38.254C115.779 39.3688 116.493 40.369 117.39 41.1895Z" fill="#1E1E1E"/>
    <path d="M190.41 46.1104C188.841 47.8246 187.045 49.3152 185.07 50.5404C181.369 52.8163 177.11 54.0213 172.765 54.0213C168.421 54.0213 164.161 52.8163 160.46 50.5404C156.689 48.2227 153.587 44.9622 151.46 41.0804C149.294 37.043 148.16 32.5323 148.16 27.9504C148.16 23.3685 149.294 18.8578 151.46 14.8204C153.589 10.932 156.69 7.66221 160.46 5.33044C164.161 3.05454 168.421 1.84961 172.765 1.84961C177.11 1.84961 181.369 3.05454 185.07 5.33044C187.021 6.5316 188.795 7.99907 190.34 9.69043L182.29 18.0004C181.457 16.9604 180.477 16.0474 179.38 15.2904C177.439 13.9429 175.133 13.2207 172.77 13.2207C170.407 13.2207 168.101 13.9429 166.16 15.2904C164.124 16.693 162.467 18.5795 161.34 20.7804C160.179 23.0098 159.576 25.487 159.58 28.0004C159.586 30.5016 160.204 32.9633 161.38 35.1704C162.508 37.3649 164.161 39.2472 166.19 40.6504C168.115 42.0043 170.412 42.7309 172.765 42.7309C175.119 42.7309 177.415 42.0043 179.34 40.6504C180.481 39.8649 181.493 38.9068 182.34 37.8104L190.41 46.1104Z" fill="#1DC200"/>
    <path d="M204.87 9.75999C204.352 10.6274 203.627 11.3525 202.76 11.87C201.869 12.3901 200.856 12.6642 199.825 12.6642C198.793 12.6642 197.781 12.3901 196.89 11.87C196.016 11.3472 195.29 10.6108 194.78 9.72999C194.248 8.81996 193.968 7.78428 193.97 6.72999C193.949 5.67732 194.219 4.63934 194.75 3.72999C195.274 2.84718 196.009 2.1084 196.89 1.57999C197.775 1.06362 198.785 0.797476 199.81 0.809992C200.844 0.799961 201.862 1.06575 202.76 1.57999C203.635 2.10556 204.361 2.84555 204.87 3.72999C205.375 4.63835 205.64 5.66058 205.64 6.69999C205.64 7.73941 205.375 8.76164 204.87 9.66999V9.75999ZM205.61 16.96V53H194.39V17L205.61 16.96Z" fill="#1DC200"/>
    <path d="M209.2 34.58C209.179 31.1467 210.17 27.7833 212.05 24.91C213.92 21.9728 216.54 19.5875 219.64 18C222.388 16.5423 225.416 15.6907 228.521 15.5027C231.626 15.3147 234.736 15.7946 237.64 16.91C240.091 17.7999 242.347 19.1585 244.28 20.91C246.201 22.6478 247.755 24.7524 248.85 27.1C249.927 29.5046 250.485 32.1099 250.485 34.745C250.485 37.3802 249.927 39.9855 248.85 42.39C247.777 44.7317 246.231 46.8257 244.31 48.5401C242.384 50.3141 240.128 51.6904 237.67 52.59C232.637 54.4169 227.122 54.4169 222.09 52.59L221.29 52.24L220.48 51.88V66.78H209.26L209.2 34.58ZM220.42 34.82C220.394 36.4162 220.847 37.9833 221.72 39.32C222.578 40.7024 223.776 41.8419 225.2 42.63C226.596 43.4415 228.184 43.8661 229.8 43.86C231.427 43.8636 233.027 43.4395 234.44 42.63C235.865 41.8444 237.064 40.7044 237.92 39.32C238.785 37.9797 239.241 36.4156 239.23 34.82C239.235 33.6048 238.987 32.4018 238.502 31.2877C238.016 30.1737 237.304 29.1732 236.41 28.35C234.653 26.6193 232.286 25.6491 229.82 25.6491C227.353 25.6491 224.986 26.6193 223.23 28.35C222.334 29.1713 221.621 30.1717 221.137 31.2864C220.653 32.401 220.408 33.6049 220.42 34.82Z" fill="#1DC200"/>
    <path d="M265.25 3V19C266.384 17.86 267.748 16.9738 269.25 16.4C270.814 15.7721 272.484 15.4496 274.17 15.45C283.19 15.45 287.7 20.7333 287.7 31.3V52.93H276.45V32.12C276.589 30.3791 276.071 28.6492 275 27.27C274.466 26.7171 273.818 26.2862 273.102 26.0066C272.386 25.727 271.618 25.6053 270.85 25.65C270.093 25.6082 269.336 25.7315 268.632 26.0112C267.927 26.2909 267.292 26.7204 266.77 27.27C265.663 28.6329 265.122 30.3694 265.26 32.12V52.93L254 53V3H265.25Z" fill="#1DC200"/>
    <path d="M329.2 27.0896C330.264 29.4777 330.806 32.0653 330.79 34.6796V34.9996C330.804 35.1292 330.804 35.2599 330.79 35.3896L330.72 35.9796H326.36V36.0496H302.13C302.4 37.9866 303.304 39.7798 304.7 41.1496C305.517 41.995 306.496 42.6672 307.578 43.1259C308.661 43.5847 309.825 43.8206 311 43.8196C312.182 43.8305 313.353 43.5992 314.442 43.14C315.53 42.6807 316.513 42.0034 317.33 41.1496L317.4 41.0796L317.5 40.9396L317.61 40.8396L317.68 40.7296L323.73 49.3796C322.133 50.6949 320.355 51.7727 318.45 52.5796C316.079 53.5202 313.551 54.0021 311 53.9996C307.593 54.0214 304.239 53.1637 301.26 51.5096C298.265 49.8798 295.759 47.4807 294 44.5596C292.429 41.9507 291.504 39.0041 291.302 35.9652C291.1 32.9264 291.627 29.8833 292.84 27.0896C294.954 22.4465 298.786 18.8044 303.53 16.9296C305.91 15.9968 308.444 15.5186 311 15.5196C313.55 15.5141 316.078 15.9926 318.45 16.9296C320.814 17.8357 322.977 19.1945 324.82 20.9296C326.693 22.6554 328.185 24.7535 329.2 27.0896ZM311 25.6796C309.443 25.6758 307.913 26.0903 306.57 26.8796C305.64 27.4708 304.809 28.2067 304.11 29.0596H317.89C317.191 28.2067 316.361 27.4708 315.43 26.8796C314.088 26.0903 312.558 25.6758 311 25.6796Z" fill="#1DC200"/>
    <path d="M352.8 26.3202C352.118 25.8872 351.328 25.655 350.52 25.6502H349.88C347.02 25.7702 345.59 27.7702 345.59 31.6502V52.9302H334.34V31.6202C334.34 21.3802 339.52 16.0036 349.88 15.4902H350.52C351.284 15.5097 352.045 15.5798 352.8 15.7002V26.3202Z" fill="#1DC200"/>
    </svg>
    