<svg width="100" height="100" viewBox="0 0 100 100" fill="none" xmlns="http://www.w3.org/2000/svg">
<path d="M49.9961 1.51087e-07C40.1072 0.000768878 30.4406 2.93387 22.2187 8.42841C13.9967 13.9229 7.58871 21.7321 3.80493 30.8685C0.0211456 40.0049 -0.968468 50.0581 0.961232 59.7569C2.89093 69.4557 7.65328 78.3645 14.6461 85.3567C21.6388 92.3489 30.548 97.1106 40.2469 99.0395C49.9459 100.968 59.999 99.9781 69.1351 96.1936C78.2712 92.4091 86.0798 86.0005 91.5738 77.7781C97.0676 69.5557 100 59.8889 100 50C100 43.4336 98.7066 36.9315 96.1936 30.8649C93.6806 24.7984 89.9973 19.2863 85.354 14.6433C80.7106 10.0003 75.1982 6.31741 69.1315 3.80491C63.0648 1.2924 56.5625 -0.000510298 49.9961 1.51087e-07ZM49.9961 92.8599C41.5192 92.8599 33.2327 90.3462 26.1844 85.6367C19.1362 80.9272 13.6427 74.2334 10.3987 66.4018C7.15477 58.5701 6.306 49.9524 7.95976 41.6384C9.61352 33.3244 13.6955 25.6875 19.6896 19.6935C25.6837 13.6994 33.3206 9.61738 41.6346 7.96362C49.9486 6.30986 58.5663 7.15863 66.3979 10.4026C74.2295 13.6466 80.9233 19.14 85.6328 26.1883C90.3423 33.2366 92.856 41.5231 92.856 50C92.856 61.3671 88.3404 72.2687 80.3027 80.3065C72.2649 88.3443 61.3633 92.8599 49.9961 92.8599Z" fill="#1DC200"/>
<path d="M37.8996 42.856C37.4257 42.0336 36.8696 41.2613 36.2399 40.5511C34.4509 38.524 32.1233 37.0462 29.5277 36.2895C26.932 35.5329 24.1749 35.5284 21.5769 36.2767C18.9788 37.025 16.6464 38.4953 14.8509 40.5166C13.0553 42.538 11.8704 45.0275 11.4337 47.6956C10.997 50.3638 11.3265 53.1012 12.3839 55.5895C13.4414 58.0778 15.1833 60.2149 17.4073 61.7524C19.6312 63.2899 22.2459 64.1646 24.9473 64.2749C27.6488 64.3853 30.326 63.7266 32.6679 62.3756V64.2879H39.8119V50C39.816 47.4916 39.1562 45.0269 37.8996 42.856ZM18.3645 50C18.3645 48.587 18.7835 47.2058 19.5684 46.031C20.3534 44.8562 21.4692 43.9405 22.7746 43.3998C24.0799 42.8591 25.5164 42.7176 26.9022 42.9933C28.288 43.2689 29.5609 43.9493 30.56 44.9484C31.5591 45.9475 32.2395 47.2204 32.5151 48.6062C32.7908 49.992 32.6493 51.4284 32.1086 52.7338C31.5679 54.0392 30.6522 55.155 29.4774 55.9399C28.3026 56.7249 26.9214 57.1439 25.5084 57.1439C23.6137 57.1439 21.7966 56.3913 20.4569 55.0515C19.1171 53.7118 18.3645 51.8947 18.3645 50Z" fill="#111311"/>
<path d="M57.1395 57.1438C55.2448 57.1438 53.4277 56.3911 52.088 55.0514C50.7482 53.7116 49.9956 51.8945 49.9956 49.9998V35.7119H42.8555V49.9998C42.8539 51.8763 43.2223 53.7346 43.9396 55.4685C44.6568 57.2024 45.7089 58.778 47.0355 60.105C48.3622 61.432 49.9374 62.4845 51.6711 63.2022C53.4049 63.9199 55.2631 64.2888 57.1395 64.2878H64.2835V57.1438H57.1395Z" fill="#111311"/>
<path d="M80.0995 35.7119C76.3101 35.7119 72.6759 37.2172 69.9964 39.8968C67.3169 42.5763 65.8115 46.2104 65.8115 49.9998C65.8115 53.7892 67.3169 57.4234 69.9964 60.1029C72.6759 62.7824 76.3101 64.2878 80.0995 64.2878H87.2629V57.1438H80.0995C78.2048 57.1438 76.3877 56.3911 75.0479 55.0514C73.7082 53.7116 72.9555 51.8945 72.9555 49.9998C72.9555 48.1051 73.7082 46.288 75.0479 44.9483C76.3877 43.6085 78.2048 42.8559 80.0995 42.8559H87.2629V35.7119H80.0995Z" fill="#111311"/>
</svg>
