<svg width="38" height="30" viewBox="0 0 38 30" fill="none" xmlns="http://www.w3.org/2000/svg">
<path d="M9.578 0.814983C15.8473 0.270006 22.152 0.270006 28.4213 0.814982L31.4418 1.07755C33.4525 1.25234 35.1746 2.45167 36.0669 4.16723C36.1811 4.3867 36.0955 4.65242 35.8852 4.78264L23.3533 12.5405C20.6655 14.2043 17.2765 14.2392 14.5551 12.6311L1.93942 5.17641C1.7356 5.05597 1.64204 4.80805 1.73389 4.58985C2.55021 2.65071 4.38547 1.26636 6.55753 1.07755L9.578 0.814983Z" fill="#1DC200"/>
<path d="M1.72363 8.53352C1.4117 8.3492 1.0137 8.54755 0.977335 8.90803C0.469865 13.9393 0.592686 19.0182 1.3458 24.0264C1.74283 26.6667 3.89764 28.6907 6.55753 28.922L9.578 29.1845C15.8473 29.7295 22.152 29.7295 28.4213 29.1845L31.4418 28.922C34.1017 28.6907 36.2565 26.6667 36.6535 24.0264C37.4286 18.8723 37.5361 13.6432 36.976 8.46831C36.9367 8.10527 36.5319 7.91058 36.2215 8.10278L24.9323 15.0913C21.296 17.3424 16.7108 17.3896 13.0289 15.2139L1.72363 8.53352Z" fill="#1DC200"/>
</svg>
