<svg width="25" height="22" viewBox="0 0 25 22" fill="none" xmlns="http://www.w3.org/2000/svg">
<path d="M24.3241 11.5824C24.5357 11.4649 24.667 11.2418 24.667 10.9997C24.667 10.7576 24.5357 10.5345 24.3241 10.4169L21.281 8.72629C15.2856 5.39553 8.96554 2.68618 2.41927 0.640474L1.53251 0.36336C1.33008 0.300102 1.10964 0.336931 0.938769 0.462553C0.767899 0.588175 0.666992 0.787601 0.666992 0.99968V8.66634C0.666992 9.02092 0.944536 9.31345 1.29862 9.33209L2.64481 9.40294C5.92696 9.57569 9.18907 10.0209 12.3975 10.7338L12.7152 10.8044C12.7859 10.8202 12.8166 10.8491 12.8336 10.872C12.8551 10.9009 12.8719 10.9455 12.8719 10.9997C12.8719 11.0538 12.8551 11.0984 12.8336 11.1274C12.8166 11.1503 12.7859 11.1792 12.7152 11.1949L12.3975 11.2655C9.18908 11.9785 5.92694 12.4237 2.64477 12.5964L1.29862 12.6673C0.944536 12.6859 0.666992 12.9784 0.666992 13.333V20.9997C0.666992 21.2118 0.767898 21.4112 0.938768 21.5368C1.10964 21.6624 1.33008 21.6993 1.53251 21.636L2.41929 21.3589C8.96554 19.3132 15.2856 16.6038 21.281 13.2731L24.3241 11.5824Z" fill="#F7F8F7"/>
</svg>
