<svg width="37" height="353" viewBox="0 0 37 353" fill="none" xmlns="http://www.w3.org/2000/svg">
<path d="M37 352.1H7.95C6.68333 352.1 5.53333 351.783 4.5 351.15C3.43333 350.517 2.58333 349.683 1.95 348.65C1.31667 347.583 0.999999 346.417 0.999999 345.15L0.999999 323.1C0.999999 321.833 1.31667 320.667 1.95 319.6C2.58333 318.533 3.43333 317.683 4.5 317.05C5.53333 316.417 6.68333 316.1 7.95 316.1H37V322.75H24.9V345.5H37V352.1ZM18.3 345.5V322.75H8.25C8.08333 322.75 7.95 322.817 7.85 322.95C7.71667 323.083 7.65 323.233 7.65 323.4L7.65 344.9C7.65 345.067 7.71667 345.217 7.85 345.35C7.95 345.45 8.08333 345.5 8.25 345.5H18.3ZM37 310.353H0.949999V303.753H30.35L30.35 274.353H37L37 310.353ZM37 264.488C37 265.755 36.6833 266.922 36.05 267.988C35.4167 269.022 34.5833 269.855 33.55 270.488C32.4833 271.122 31.3167 271.438 30.05 271.438H7.95C6.68333 271.438 5.53333 271.122 4.5 270.488C3.43333 269.855 2.58333 269.022 1.95 267.988C1.31667 266.922 0.999999 265.755 0.999999 264.488V242.438C0.999999 241.172 1.31667 240.005 1.95 238.938C2.58333 237.872 3.43333 237.022 4.5 236.388C5.53333 235.755 6.68333 235.438 7.95 235.438H10.75V242.088H8.25C8.08333 242.088 7.95 242.155 7.85 242.288C7.71667 242.422 7.65 242.572 7.65 242.738V264.238C7.65 264.405 7.71667 264.555 7.85 264.688C7.95 264.788 8.08333 264.838 8.25 264.838H29.75C29.9167 264.838 30.0667 264.788 30.2 264.688C30.3 264.555 30.35 264.405 30.35 264.238V242.738C30.35 242.572 30.3 242.422 30.2 242.288C30.0667 242.155 29.9167 242.088 29.75 242.088H23.25V250.238H16.6V235.438H30.05C31.3167 235.438 32.4833 235.755 33.55 236.388C34.5833 237.022 35.4167 237.872 36.05 238.938C36.6833 240.005 37 241.172 37 242.438V264.488ZM37 223.084C37 224.351 36.6833 225.518 36.05 226.584C35.4167 227.618 34.5833 228.451 33.55 229.084C32.4833 229.718 31.3167 230.034 30.05 230.034H7.95C6.68333 230.034 5.53333 229.718 4.5 229.084C3.43333 228.451 2.58333 227.618 1.95 226.584C1.31667 225.518 0.999999 224.351 0.999999 223.084L0.999999 200.984C0.999999 199.718 1.31667 198.568 1.95 197.534C2.58333 196.468 3.43333 195.618 4.5 194.984C5.53333 194.351 6.68333 194.034 7.95 194.034H30.05C31.3167 194.034 32.4833 194.351 33.55 194.984C34.5833 195.618 35.4167 196.468 36.05 197.534C36.6833 198.568 37 199.718 37 200.984V223.084ZM30.35 222.834V201.334C30.35 201.168 30.3 201.018 30.2 200.884C30.0667 200.751 29.9167 200.684 29.75 200.684H8.25C8.08333 200.684 7.95 200.751 7.85 200.884C7.71667 201.018 7.65 201.168 7.65 201.334L7.65 222.834C7.65 223.001 7.71667 223.151 7.85 223.284C7.95 223.384 8.08333 223.434 8.25 223.434H29.75C29.9167 223.434 30.0667 223.384 30.2 223.284C30.3 223.151 30.35 223.001 30.35 222.834ZM37 181.578C37 182.845 36.6833 184.011 36.05 185.078C35.4167 186.111 34.5833 186.945 33.55 187.578C32.4833 188.211 31.3167 188.528 30.05 188.528H7.95C6.68333 188.528 5.53333 188.211 4.5 187.578C3.43333 186.945 2.58333 186.111 1.95 185.078C1.31667 184.011 0.999999 182.845 0.999999 181.578V152.628H7.65V180.178C7.65 180.711 7.8 181.145 8.1 181.478C8.4 181.778 8.83333 181.928 9.4 181.928H28.6C29.1333 181.928 29.5667 181.778 29.9 181.478C30.2 181.145 30.35 180.711 30.35 180.178V152.628H37L37 181.578ZM37 148.115H0.999999V141.565H37V148.115ZM37 136.721H1.05V107.721C1.05 106.455 1.36666 105.288 2 104.221C2.63333 103.155 3.48333 102.305 4.55 101.671C5.58333 101.038 6.73333 100.721 8 100.721H17.7C18.9667 100.721 20.1333 101.038 21.2 101.671C22.2667 102.305 23.1167 103.155 23.75 104.221C24.35 105.288 24.65 106.455 24.65 107.721L24.7 130.121H37V136.721ZM18 129.521V108.021C18 107.855 17.95 107.705 17.85 107.571C17.75 107.438 17.6167 107.371 17.45 107.371H8.25C8.08333 107.371 7.95 107.438 7.85 107.571C7.71667 107.705 7.65 107.855 7.65 108.021V129.521C7.65 129.688 7.71667 129.838 7.85 129.971C7.95 130.071 8.08333 130.121 8.25 130.121H17.45C17.6167 130.121 17.75 130.071 17.85 129.971C17.95 129.838 18 129.688 18 129.521ZM37 97.1207H0.999999L0.999999 90.5207H15.65V66.9207H0.999999V60.3207H37L37 66.9207H22.35V90.5207H37V97.1207ZM37 54.5414H0.999999L0.999999 21.3914H7.65L7.65 47.8914H15.65V26.5914H22.35V47.8914H30.35V21.3914H37V54.5414ZM37 -12.3398L24.05 -1.48984V-10.1398L35.15 -19.5398H37V-12.3398ZM37 16.3602H1.05V-12.6398C1.05 -13.9065 1.36666 -15.0732 2 -16.1398C2.63333 -17.2065 3.48333 -18.0565 4.55 -18.6898C5.58333 -19.3232 6.73333 -19.6398 8 -19.6398H17.7C18.9667 -19.6398 20.1333 -19.3232 21.2 -18.6898C22.2667 -18.0565 23.1167 -17.2065 23.75 -16.1398C24.35 -15.0732 24.65 -13.9065 24.65 -12.6398L24.7 9.76016H37V16.3602ZM18 9.16016V-12.3398C18 -12.5065 17.95 -12.6565 17.85 -12.7898C17.75 -12.9232 17.6167 -12.9898 17.45 -12.9898H8.25C8.08333 -12.9898 7.95 -12.9232 7.85 -12.7898C7.71667 -12.6565 7.65 -12.5065 7.65 -12.3398V9.16016C7.65 9.32682 7.71667 9.47682 7.85 9.61016C7.95 9.71016 8.08333 9.76016 8.25 9.76016H17.45C17.6167 9.76016 17.75 9.71016 17.85 9.61016C17.95 9.47682 18 9.32682 18 9.16016Z" fill="#E2E4E2"/>
</svg>
