<svg width="34" height="34" viewBox="0 0 34 34" fill="none" xmlns="http://www.w3.org/2000/svg">
<path d="M2.00009 13.7206C5.83289 22.0684 12.6529 28.7054 21.132 32.3034L22.4912 32.909C25.6008 34.2944 29.2563 33.2419 31.153 30.4148L32.9291 27.7674C33.5066 26.9067 33.3308 25.7474 32.5241 25.0965L26.5004 20.237C25.6156 19.5232 24.3146 19.6894 23.6378 20.6028L21.7743 23.1173C16.9927 20.7586 13.1106 16.8765 10.7519 12.0949L13.2664 10.2314C14.1797 9.55458 14.346 8.25356 13.6322 7.36879L8.77245 1.34491C8.12176 0.538345 6.96275 0.36241 6.10202 0.939548L3.43634 2.72694C0.591649 4.63436 -0.455112 8.32006 0.962351 11.438L1.99853 13.7172L2.00009 13.7206Z" fill="#117000"/>
</svg>
