<svg width="56" height="51" viewBox="0 0 56 51" fill="none" xmlns="http://www.w3.org/2000/svg">
<path d="M8.77767 16.792C11.3901 14.762 13.5573 16.162 16.4497 19.5108C16.7745 19.8888 17.2113 19.4464 17.4605 19.2308C17.7069 19.0124 21.5233 15.5768 21.7109 15.42C21.8957 15.2548 22.1197 14.9468 21.8257 14.6024C21.1175 13.7264 20.4239 12.8387 19.7453 11.9396C14.6829 5.31757 33.5941 0.826371 30.6905 0.756371C29.2121 0.717171 23.2817 0.647171 22.3941 0.745171C18.8017 1.12317 14.2909 4.48037 12.0201 6.04557C9.04927 8.07837 7.94047 9.27117 7.75847 9.43637C6.91847 10.17 7.62407 11.864 6.10087 13.1996C4.49087 14.608 3.48567 13.5412 2.55327 14.3588C2.09127 14.7676 0.797674 15.7364 0.428074 16.0584C0.0556736 16.386 -0.0115265 16.9376 0.369274 17.3772C0.369274 17.3772 3.90847 21.286 4.20527 21.6332C4.49927 21.9748 5.30007 22.2716 5.79287 21.832C6.28847 21.3952 7.56247 20.2836 7.77527 20.0876C7.99367 19.9028 7.63527 17.6768 8.77767 16.792ZM24.7601 18.2396C24.4241 17.8504 24.0069 17.8392 23.6485 18.1584L19.6333 21.664C19.4783 21.8046 19.3838 21.9999 19.3697 22.2087C19.3556 22.4176 19.423 22.6238 19.5577 22.784L42.7809 49.2132C43.3241 49.8376 44.2649 49.902 44.8837 49.3616L47.5997 47.0852C47.8986 46.8219 48.0816 46.4513 48.1089 46.0539C48.1361 45.6565 48.0055 45.2644 47.7453 44.9628L24.7601 18.2396ZM55.7253 6.99197C55.5181 5.60877 54.8013 5.89717 54.4289 6.48237C54.0565 7.07317 52.4101 9.56797 51.7325 10.6992C51.0605 11.8192 49.4029 14.034 46.3173 11.8472C43.1029 9.57637 44.2201 7.99157 44.7801 6.92477C45.3429 5.85237 47.0705 2.84517 47.3197 2.47277C47.5689 2.09477 47.2777 0.997171 46.2809 1.45637C45.2813 1.91557 39.2165 4.32637 38.3765 7.78437C37.5169 11.3012 39.0961 14.4456 35.9965 17.5676L32.2361 21.4876L36.0133 25.8724L40.6445 21.4764C41.7477 20.3676 44.1053 19.2896 46.2389 19.7768C50.8113 20.81 53.3061 19.0936 54.8097 16.2544C56.1593 13.7176 55.9353 8.37517 55.7253 6.99197ZM7.66887 45.2484C7.3888 45.5305 7.23163 45.912 7.23163 46.3096C7.23163 46.7071 7.3888 47.0886 7.66887 47.3708L10.3317 49.9748C10.9141 50.56 11.8381 50.3136 12.4205 49.7284L26.1601 36.2212L21.9517 31.422L7.66887 45.2484Z" fill="#F7F8F7"/>
</svg>
