<svg width="40" height="41" viewBox="0 0 40 41" fill="none" xmlns="http://www.w3.org/2000/svg">
<path fill-rule="evenodd" clip-rule="evenodd" d="M11.6941 3.24408C12.0195 2.91864 12.5471 2.91864 12.8726 3.24408L14.7154 5.08694C16.0976 4.28955 17.7014 3.83333 19.4118 3.83333H20.5882C22.3 3.83333 23.905 4.29029 25.2879 5.08887L27.1327 3.24408C27.4581 2.91864 27.9858 2.91864 28.3112 3.24408C28.6367 3.56951 28.6367 4.09715 28.3112 4.42259L26.671 6.06282C28.7074 7.78923 30 10.3662 30 13.2451C30 13.57 29.7366 13.8333 29.4118 13.8333H10.5882C10.2634 13.8333 10 13.57 10 13.2451C10 10.3649 11.2938 7.78682 13.3319 6.06039L11.6941 4.42259C11.3686 4.09715 11.3686 3.56951 11.6941 3.24408ZM17.5 9.25C17.5 9.94036 16.9404 10.5 16.25 10.5C15.5596 10.5 15 9.94036 15 9.25C15 8.55964 15.5596 8 16.25 8C16.9404 8 17.5 8.55964 17.5 9.25ZM23.7062 10.5C24.3965 10.5 24.9562 9.94036 24.9562 9.25C24.9562 8.55964 24.3965 8 23.7062 8C23.0158 8 22.4562 8.55964 22.4562 9.25C22.4562 9.94036 23.0158 10.5 23.7062 10.5Z" fill="#1DC200"/>
<path d="M6.66667 15.4123C5.74619 15.4123 5 16.1585 5 17.0789V27.0789C5 27.9994 5.74619 28.7456 6.66667 28.7456C7.58714 28.7456 8.33333 27.9994 8.33333 27.0789V17.0789C8.33333 16.1585 7.58714 15.4123 6.66667 15.4123Z" fill="#1DC200"/>
<path d="M11.6667 15.4123C10.7462 15.4123 10 16.1585 10 17.0789V32.0789C10 32.9994 10.7462 33.7456 11.6667 33.7456H28.3333C29.2538 33.7456 30 32.9994 30 32.0789V17.0789C30 16.1585 29.2538 15.4123 28.3333 15.4123H11.6667Z" fill="#1DC200"/>
<path d="M32.0175 17.0789C32.0175 16.1585 32.7637 15.4123 33.6842 15.4123C34.6047 15.4123 35.3508 16.1585 35.3508 17.0789V27.0789C35.3508 27.9994 34.6047 28.7456 33.6842 28.7456C32.7637 28.7456 32.0175 27.9994 32.0175 27.0789V17.0789Z" fill="#1DC200"/>
<path d="M12.9891 35.5C12.719 35.5 12.5 35.719 12.5 35.9891V36.3333C12.5 37.9442 13.8058 39.25 15.4167 39.25C17.0275 39.25 18.3333 37.9442 18.3333 36.3333V35.9891C18.3333 35.719 18.1143 35.5 17.8442 35.5H12.9891Z" fill="#1DC200"/>
<path d="M21.6667 35.9891C21.6667 35.719 21.8857 35.5 22.1558 35.5H27.0109C27.281 35.5 27.5 35.719 27.5 35.9891V36.3333C27.5 37.9442 26.1942 39.25 24.5833 39.25C22.9725 39.25 21.6667 37.9442 21.6667 36.3333V35.9891Z" fill="#1DC200"/>
</svg>
