<svg width="24" height="25" viewBox="0 0 24 25" fill="none" xmlns="http://www.w3.org/2000/svg">
<mask id="path-1-inside-1_966_1676" fill="white">
<path fill-rule="evenodd" clip-rule="evenodd" d="M4.07477 5.24492C3.95658 5.07945 4.07486 4.84961 4.2782 4.84961H9.8075C9.88908 4.84961 9.96553 4.88941 10.0123 4.95624L12.3536 8.30099C12.9584 9.1649 14.1842 9.30168 14.9645 8.59233L19.0099 4.91467C19.0559 4.87283 19.1159 4.84965 19.1781 4.84965H20.6089C20.8316 4.84965 20.9432 5.11894 20.7857 5.27643L15.5689 10.4932C14.964 11.0981 14.885 12.0517 15.3823 12.7478L20.8132 20.3511C20.9314 20.5166 20.8131 20.7464 20.6098 20.7464H15.5392C15.4592 20.7464 15.3841 20.7082 15.337 20.6435L12.5634 16.8297C11.9309 15.9601 10.6711 15.8612 9.91068 16.6216L5.85906 20.6732C5.81217 20.7201 5.74858 20.7464 5.68228 20.7464H4.06619L9.37424 15.0845C9.94478 14.4759 10.0064 13.5493 9.52158 12.8705L4.07477 5.24492ZM4.2782 3.34961C2.8548 3.34961 2.02684 4.95851 2.85417 6.11678L8.30098 13.7423C8.37025 13.8393 8.36144 13.9717 8.27994 14.0586L2.10944 20.6405C1.53841 21.2496 1.97029 22.2464 2.8052 22.2464H5.68228C6.14641 22.2464 6.59153 22.0621 6.91972 21.7339L10.9713 17.6823C11.08 17.5736 11.2599 17.5878 11.3503 17.712L14.1239 21.5257C14.4532 21.9785 14.9793 22.2464 15.5392 22.2464H20.6098C22.0332 22.2464 22.8611 20.6376 22.0338 19.4793L16.6029 11.8759C16.5318 11.7765 16.5431 11.6403 16.6295 11.5538L21.8463 6.3371C22.9488 5.23466 22.168 3.34965 20.6089 3.34965H19.1781C18.7427 3.34965 18.323 3.51192 18.0009 3.80475L13.9555 7.48241C13.844 7.58375 13.6689 7.56421 13.5825 7.44079L11.2412 4.09605C10.9137 3.62823 10.3785 3.34961 9.8075 3.34961H4.2782ZM8.51024 6.4505H8.87354C9.19649 6.4505 9.49957 6.60647 9.68728 6.86927L17.6624 18.0344C18.1352 18.6963 17.662 19.6157 16.8487 19.6157H16.4854C16.1624 19.6157 15.8593 19.4597 15.6716 19.1969L7.69651 8.03174C7.22375 7.36987 7.69687 6.4505 8.51024 6.4505Z"/>
</mask>
<path fill-rule="evenodd" clip-rule="evenodd" d="M4.07477 5.24492C3.95658 5.07945 4.07486 4.84961 4.2782 4.84961H9.8075C9.88908 4.84961 9.96553 4.88941 10.0123 4.95624L12.3536 8.30099C12.9584 9.1649 14.1842 9.30168 14.9645 8.59233L19.0099 4.91467C19.0559 4.87283 19.1159 4.84965 19.1781 4.84965H20.6089C20.8316 4.84965 20.9432 5.11894 20.7857 5.27643L15.5689 10.4932C14.964 11.0981 14.885 12.0517 15.3823 12.7478L20.8132 20.3511C20.9314 20.5166 20.8131 20.7464 20.6098 20.7464H15.5392C15.4592 20.7464 15.3841 20.7082 15.337 20.6435L12.5634 16.8297C11.9309 15.9601 10.6711 15.8612 9.91068 16.6216L5.85906 20.6732C5.81217 20.7201 5.74858 20.7464 5.68228 20.7464H4.06619L9.37424 15.0845C9.94478 14.4759 10.0064 13.5493 9.52158 12.8705L4.07477 5.24492ZM4.2782 3.34961C2.8548 3.34961 2.02684 4.95851 2.85417 6.11678L8.30098 13.7423C8.37025 13.8393 8.36144 13.9717 8.27994 14.0586L2.10944 20.6405C1.53841 21.2496 1.97029 22.2464 2.8052 22.2464H5.68228C6.14641 22.2464 6.59153 22.0621 6.91972 21.7339L10.9713 17.6823C11.08 17.5736 11.2599 17.5878 11.3503 17.712L14.1239 21.5257C14.4532 21.9785 14.9793 22.2464 15.5392 22.2464H20.6098C22.0332 22.2464 22.8611 20.6376 22.0338 19.4793L16.6029 11.8759C16.5318 11.7765 16.5431 11.6403 16.6295 11.5538L21.8463 6.3371C22.9488 5.23466 22.168 3.34965 20.6089 3.34965H19.1781C18.7427 3.34965 18.323 3.51192 18.0009 3.80475L13.9555 7.48241C13.844 7.58375 13.6689 7.56421 13.5825 7.44079L11.2412 4.09605C10.9137 3.62823 10.3785 3.34961 9.8075 3.34961H4.2782ZM8.51024 6.4505H8.87354C9.19649 6.4505 9.49957 6.60647 9.68728 6.86927L17.6624 18.0344C18.1352 18.6963 17.662 19.6157 16.8487 19.6157H16.4854C16.1624 19.6157 15.8593 19.4597 15.6716 19.1969L7.69651 8.03174C7.22375 7.36987 7.69687 6.4505 8.51024 6.4505Z" fill="#111311"/>
<path d="M4.07477 5.24492L3.26104 5.82616L3.26104 5.82616L4.07477 5.24492ZM10.0123 4.95624L9.19307 5.5297L9.19308 5.52971L10.0123 4.95624ZM12.3536 8.30099L11.5344 8.87445H11.5344L12.3536 8.30099ZM14.9645 8.59233L14.2918 7.85238L14.2918 7.85238L14.9645 8.59233ZM19.0099 4.91467L18.3373 4.17472L18.3372 4.17473L19.0099 4.91467ZM20.7857 5.27643L20.0786 4.56932L20.0786 4.56932L20.7857 5.27643ZM15.5689 10.4932L14.8618 9.78607L14.8618 9.78607L15.5689 10.4932ZM15.3823 12.7478L16.196 12.1665L15.3823 12.7478ZM20.8132 20.3511L21.6269 19.7699L21.6269 19.7699L20.8132 20.3511ZM15.337 20.6435L14.5283 21.2317L14.5283 21.2317L15.337 20.6435ZM12.5634 16.8297L13.3721 16.2416L12.5634 16.8297ZM9.91068 16.6216L9.20357 15.9145L9.20357 15.9145L9.91068 16.6216ZM5.85906 20.6732L5.15195 19.9661L5.15195 19.9661L5.85906 20.6732ZM4.06619 20.7464L3.33665 20.0625L1.75796 21.7464H4.06619V20.7464ZM9.37424 15.0845L10.1038 15.7685V15.7685L9.37424 15.0845ZM9.52158 12.8705L10.3353 12.2892L9.52158 12.8705ZM2.85417 6.11678L3.66791 5.53554L2.85417 6.11678ZM8.30098 13.7423L7.48725 14.3236L7.48725 14.3236L8.30098 13.7423ZM8.27994 14.0586L9.00947 14.7426L9.00948 14.7425L8.27994 14.0586ZM2.10944 20.6405L2.83898 21.3244L2.83898 21.3244L2.10944 20.6405ZM6.91972 21.7339L6.21261 21.0268H6.21261L6.91972 21.7339ZM11.3503 17.712L10.5416 18.3002L10.5416 18.3002L11.3503 17.712ZM14.1239 21.5257L13.3152 22.1139L14.1239 21.5257ZM22.0338 19.4793L21.2201 20.0605V20.0605L22.0338 19.4793ZM16.6029 11.8759L17.4166 11.2947L17.4166 11.2947L16.6029 11.8759ZM16.6295 11.5538L17.3366 12.261L17.3366 12.261L16.6295 11.5538ZM21.8463 6.3371L21.1392 5.62999V5.62999L21.8463 6.3371ZM18.0009 3.80475L17.3282 3.06481L17.3282 3.06481L18.0009 3.80475ZM13.9555 7.48241L14.6281 8.22236L14.6281 8.22236L13.9555 7.48241ZM13.5825 7.44079L12.7632 8.01425L12.7632 8.01425L13.5825 7.44079ZM11.2412 4.09605L12.0604 3.52259L12.0604 3.52259L11.2412 4.09605ZM9.68728 6.86927L8.87354 7.4505L8.87354 7.4505L9.68728 6.86927ZM17.6624 18.0344L18.4761 17.4532V17.4532L17.6624 18.0344ZM15.6716 19.1969L14.8579 19.7782L15.6716 19.1969ZM7.69651 8.03174L8.51024 7.4505L7.69651 8.03174ZM4.2782 3.84961C3.2615 3.84961 2.67008 4.99882 3.26104 5.82616L4.88851 4.66368C5.24308 5.16009 4.88823 5.84961 4.2782 5.84961V3.84961ZM9.8075 3.84961H4.2782V5.84961H9.8075V3.84961ZM10.8315 4.38278C10.5976 4.04862 10.2154 3.84961 9.8075 3.84961V5.84961C9.56277 5.84961 9.33342 5.7302 9.19307 5.5297L10.8315 4.38278ZM13.1729 7.72752L10.8315 4.38278L9.19308 5.52971L11.5344 8.87445L13.1729 7.72752ZM14.2918 7.85238C13.9574 8.15639 13.432 8.09777 13.1729 7.72752L11.5344 8.87445C12.4847 10.232 14.4109 10.447 15.6371 9.33227L14.2918 7.85238ZM18.3372 4.17473L14.2918 7.85238L15.6371 9.33227L19.6826 5.65461L18.3372 4.17473ZM19.1781 3.84965C18.8671 3.84965 18.5673 3.96556 18.3373 4.17472L19.6826 5.65462C19.5445 5.78011 19.3647 5.84965 19.1781 5.84965V3.84965ZM20.6089 3.84965H19.1781V5.84965H20.6089V3.84965ZM21.4928 5.98354C22.2802 5.1961 21.7226 3.84965 20.6089 3.84965V5.84965C19.9407 5.84965 19.6061 5.04179 20.0786 4.56932L21.4928 5.98354ZM16.276 11.2003L21.4928 5.98354L20.0786 4.56932L14.8618 9.78607L16.276 11.2003ZM16.196 12.1665C15.9829 11.8682 16.0167 11.4595 16.276 11.2003L14.8618 9.78607C13.9112 10.7366 13.7872 12.2351 14.5685 13.329L16.196 12.1665ZM21.6269 19.7699L16.196 12.1665L14.5685 13.329L19.9995 20.9324L21.6269 19.7699ZM20.6098 21.7464C21.6265 21.7464 22.2179 20.5972 21.6269 19.7699L19.9995 20.9324C19.6449 20.436 19.9997 19.7464 20.6098 19.7464V21.7464ZM15.5392 21.7464H20.6098V19.7464H15.5392V21.7464ZM14.5283 21.2317C14.7635 21.5551 15.1393 21.7464 15.5392 21.7464V19.7464C15.7792 19.7464 16.0046 19.8613 16.1458 20.0553L14.5283 21.2317ZM11.7547 17.4179L14.5283 21.2317L16.1458 20.0553L13.3721 16.2416L11.7547 17.4179ZM10.6178 17.3287C10.9437 17.0028 11.4836 17.0452 11.7547 17.4179L13.3721 16.2416C12.3782 14.8749 10.3985 14.7196 9.20357 15.9145L10.6178 17.3287ZM6.56616 21.3803L10.6178 17.3287L9.20357 15.9145L5.15195 19.9661L6.56616 21.3803ZM5.68228 21.7464C6.01379 21.7464 6.33174 21.6148 6.56617 21.3803L5.15195 19.9661C5.2926 19.8255 5.48337 19.7464 5.68228 19.7464V21.7464ZM4.06619 21.7464H5.68228V19.7464H4.06619V21.7464ZM8.6447 14.4006L3.33665 20.0625L4.79573 21.4304L10.1038 15.7685L8.6447 14.4006ZM8.70785 13.4517C8.91565 13.7426 8.88922 14.1398 8.6447 14.4006L10.1038 15.7685C11.0003 14.8121 11.0972 13.3559 10.3353 12.2892L8.70785 13.4517ZM3.26104 5.82616L8.70785 13.4517L10.3353 12.2892L4.88851 4.66368L3.26104 5.82616ZM3.66791 5.53554C3.31333 5.03914 3.66818 4.34961 4.2782 4.34961V2.34961C2.04142 2.34961 0.740345 4.87788 2.04044 6.69802L3.66791 5.53554ZM9.11472 13.1611L3.66791 5.53554L2.04044 6.69802L7.48725 14.3236L9.11472 13.1611ZM9.00948 14.7425C9.417 14.3079 9.46105 13.6459 9.11471 13.1611L7.48725 14.3236C7.27945 14.0326 7.30589 13.6355 7.55039 13.3747L9.00948 14.7425ZM2.83898 21.3244L9.00947 14.7426L7.5504 13.3747L1.3799 19.9565L2.83898 21.3244ZM2.8052 21.2464C2.80124 21.2464 2.80426 21.246 2.81176 21.2484C2.81899 21.2506 2.82628 21.2542 2.83257 21.2586C2.84432 21.2667 2.84729 21.2734 2.84768 21.2743C2.84808 21.2753 2.85097 21.282 2.84886 21.2962C2.84773 21.3037 2.84536 21.3115 2.84207 21.3183C2.83866 21.3254 2.83627 21.3273 2.83898 21.3244L1.3799 19.9565C0.210123 21.2043 1.09486 23.2464 2.8052 23.2464V21.2464ZM5.68228 21.2464H2.8052V23.2464H5.68228V21.2464ZM6.21261 21.0268C6.07196 21.1674 5.88119 21.2464 5.68228 21.2464V23.2464C6.41162 23.2464 7.1111 22.9567 7.62682 22.441L6.21261 21.0268ZM10.2642 16.9752L6.21261 21.0268L7.62682 22.441L11.6784 18.3894L10.2642 16.9752ZM12.159 17.1238C11.7073 16.5026 10.8074 16.432 10.2642 16.9752L11.6784 18.3894C11.3526 18.7152 10.8126 18.6729 10.5416 18.3002L12.159 17.1238ZM14.9327 20.9376L12.159 17.1238L10.5416 18.3002L13.3152 22.1139L14.9327 20.9376ZM15.5392 21.2464C15.2993 21.2464 15.0738 21.1316 14.9327 20.9376L13.3152 22.1139C13.8327 22.8255 14.6594 23.2464 15.5392 23.2464V21.2464ZM20.6098 21.2464H15.5392V23.2464H20.6098V21.2464ZM21.2201 20.0605C21.5746 20.5569 21.2198 21.2464 20.6098 21.2464V23.2464C22.8465 23.2464 24.1476 20.7182 22.8475 18.898L21.2201 20.0605ZM15.7891 12.4572L21.2201 20.0605L22.8475 18.898L17.4166 11.2947L15.7891 12.4572ZM15.9224 10.8467C15.4903 11.2788 15.434 11.9599 15.7891 12.4572L17.4166 11.2947C17.6297 11.593 17.5959 12.0017 17.3366 12.261L15.9224 10.8467ZM21.1392 5.62999L15.9224 10.8467L17.3366 12.261L22.5534 7.04421L21.1392 5.62999ZM20.6089 4.34965C21.2771 4.34965 21.6117 5.15752 21.1392 5.62999L22.5534 7.04421C24.2859 5.31181 23.0589 2.34965 20.6089 2.34965V4.34965ZM19.1781 4.34965H20.6089V2.34965H19.1781V4.34965ZM18.6736 4.5447C18.8116 4.41919 18.9915 4.34965 19.1781 4.34965V2.34965C18.494 2.34965 17.8344 2.60464 17.3282 3.06481L18.6736 4.5447ZM14.6281 8.22236L18.6736 4.5447L17.3282 3.06481L13.2828 6.74247L14.6281 8.22236ZM12.7632 8.01425C13.1952 8.63134 14.0708 8.72903 14.6281 8.22236L13.2828 6.74247C13.6172 6.43846 14.1425 6.49708 14.4017 6.86733L12.7632 8.01425ZM10.4219 4.66951L12.7632 8.01425L14.4017 6.86733L12.0604 3.52259L10.4219 4.66951ZM9.8075 4.34961C10.0522 4.34961 10.2816 4.46902 10.4219 4.66951L12.0604 3.52259C11.5458 2.78744 10.7049 2.34961 9.8075 2.34961V4.34961ZM4.2782 4.34961H9.8075V2.34961H4.2782V4.34961ZM8.87354 5.4505H8.51024V7.4505H8.87354V5.4505ZM10.501 6.28803C10.1256 5.76243 9.51944 5.4505 8.87354 5.4505V7.4505V7.4505L10.501 6.28803ZM18.4761 17.4532L10.501 6.28803L8.87354 7.4505L16.8487 18.6157L18.4761 17.4532ZM16.8487 20.6157C18.4754 20.6157 19.4217 18.7769 18.4761 17.4532L16.8487 18.6157H16.8487V20.6157ZM16.4854 20.6157H16.8487V18.6157H16.4854V20.6157ZM14.8579 19.7782C15.2333 20.3037 15.8395 20.6157 16.4854 20.6157V18.6157V18.6157L14.8579 19.7782ZM6.88277 8.61298L14.8579 19.7782L16.4854 18.6157L8.51024 7.4505L6.88277 8.61298ZM8.51024 5.4505C6.8835 5.4505 5.93725 7.28924 6.88277 8.61298L8.51024 7.4505V7.4505V5.4505Z" fill="#111311" mask="url(#path-1-inside-1_966_1676)"/>
</svg>
